<svg xmlns="http://www.w3.org/2000/svg" style="display: none;">

	<symbol id="creditCard" viewBox="0 0 64 64">
		<path class="svg" d="M12.76,32.24h8.31v1h-8.31V32.24z M12.76,29.51v1h3.19v-1H12.76z M21.07,29.51h-3.9v1h3.9V29.51z M10.29,41.82h20.08v1
	H10.29c-2.65,0-4.81-2.16-4.81-4.81V17.09c0-2.65,2.16-4.81,4.81-4.81h35.15c2.65,0,4.81,2.16,4.81,4.81v7.9h-1v-1.63H6.48V38
	C6.48,40.11,8.19,41.82,10.29,41.82z M6.48,17.2h42.78v-0.11c0-2.1-1.71-3.81-3.81-3.81H10.29c-2.1,0-3.81,1.71-3.81,3.81V17.2z
	 M6.48,22.37h42.78V18.2H6.48V22.37z M42.3,46.17c-5.52,0-10.01-4.49-10.01-10.01s4.49-10.01,10.01-10.01s10.01,4.49,10.01,10.01
	S47.82,46.17,42.3,46.17z M51.31,36.16c0-4.97-4.04-9.01-9.01-9.01c-4.97,0-9.01,4.04-9.01,9.01c0,4.97,4.04,9.01,9.01,9.01
	C47.27,45.17,51.31,41.13,51.31,36.16z M37.59,30.96c-1.47,1.33-2.31,3.23-2.31,5.2c0,1.97,0.84,3.86,2.31,5.2l0.67-0.74
	c-1.26-1.15-1.99-2.77-1.99-4.46c0-1.69,0.72-3.31,1.99-4.46L37.59,30.96z M57.54,46.82l-5.6-4.75l-0.65,0.76l5.6,4.75
	c0.38,0.33,0.61,0.78,0.63,1.28c0.02,0.5-0.16,0.98-0.52,1.33c-0.36,0.36-0.83,0.54-1.33,0.52c-0.5-0.02-0.96-0.24-1.28-0.63
	l-4.75-5.6l-0.76,0.65l4.75,5.6c0.5,0.59,1.23,0.95,2,0.98c0.04,0,0.08,0,0.11,0c0.73,0,1.45-0.29,1.97-0.81
	c0.55-0.55,0.84-1.3,0.81-2.08C58.49,48.06,58.13,47.33,57.54,46.82z"/>
	</symbol>

	<symbol id="intro" viewBox="0 0 64 64">
		<g>
			<polygon class="svg" points="35.65,31.63 30.5,36.78 27.85,34.13 27.15,34.84 30.5,38.19 36.35,32.34 	"/>
			<rect class="svg" x="22.5" y="40.48" width="2" height="2"/>
			<rect class="svg" x="22.5" y="43.48" width="2" height="2"/>
			<rect class="svg" x="25.5" y="43.48" width="2" height="2"/>
			<path class="svg" d="M44,28.24l6.7-0.89c0.43,1.14,1.52,1.96,2.8,1.96c1.65,0,3-1.35,3-3s-1.35-3-3-3s-3,1.35-3,3c0,0.02,0.01,0.04,0.01,0.06
		L44,27.23v-4.95c0-0.02-0.01-0.04-0.01-0.05l8.29-8.29c0.49,0.34,1.08,0.55,1.72,0.55c1.65,0,3-1.35,3-3s-1.35-3-3-3s-3,1.35-3,3
		c0,0.65,0.22,1.25,0.57,1.75l-7.81,7.81c-0.49-1.21-1.67-2.06-3.05-2.06h-3.42l3.91-4.93c0.44,0.27,0.95,0.43,1.49,0.43
		c1.62,0,2.93-1.35,2.93-3s-1.31-3-2.93-3s-2.93,1.35-2.93,3c0,0.73,0.26,1.39,0.69,1.91l-4.44,5.59H32.5v-4.55
		c1.42-0.24,2.5-1.47,2.5-2.95c0-1.65-1.35-3-3-3s-3,1.35-3,3c0,1.48,1.08,2.71,2.5,2.95v4.55h-3.74l-4.32-5.45
		c0.49-0.54,0.8-1.25,0.8-2.05c0-1.65-1.31-3-2.93-3s-2.93,1.35-2.93,3s1.31,3,2.93,3c0.48,0,0.93-0.13,1.33-0.34l3.84,4.84h-3.19
		c-1.37,0-2.55,0.85-3.04,2.04l-7.81-7.81c0.35-0.49,0.56-1.09,0.56-1.73c0-1.65-1.35-3-3-3s-3,1.35-3,3s1.35,3,3,3
		c0.65,0,1.24-0.21,1.73-0.56l8.27,8.27c0,0.03-0.01,0.05-0.01,0.08v4.95l-6.51-0.87c0-0.02,0.01-0.04,0.01-0.06c0-1.65-1.35-3-3-3
		s-3,1.35-3,3s1.35,3,3,3c1.29,0,2.38-0.82,2.8-1.96l6.7,0.89v7.25h-6.55c-0.24-1.42-1.47-2.5-2.95-2.5c-1.65,0-3,1.35-3,3
		s1.35,3,3,3c1.48,0,2.71-1.08,2.95-2.5H20v13.21c0,1.82,1.48,3.29,3.29,3.29h16.09l2.53,2.53h6.25V42.28L44,38.1v-1.62h6.55
		c0.24,1.42,1.47,2.5,2.95,2.5c1.65,0,3-1.35,3-3s-1.35-3-3-3c-1.48,0-2.71,1.08-2.95,2.5H44V28.24z M53.5,24.3c1.1,0,2,0.9,2,2
		s-0.9,2-2,2s-2-0.9-2-2S52.4,24.3,53.5,24.3z M54,9.48c1.1,0,2,0.9,2,2s-0.9,2-2,2s-2-0.9-2-2S52.9,9.48,54,9.48z M42.69,9.48
		c1.06,0,1.93,0.9,1.93,2s-0.87,2-1.93,2s-1.93-0.9-1.93-2S41.63,9.48,42.69,9.48z M30,11.48c0-1.1,0.9-2,2-2s2,0.9,2,2s-0.9,2-2,2
		S30,12.59,30,11.48z M19.38,11.48c0-1.1,0.87-2,1.93-2s1.93,0.9,1.93,2s-0.87,2-1.93,2S19.38,12.59,19.38,11.48z M8,11.48
		c0-1.1,0.9-2,2-2s2,0.9,2,2s-0.9,2-2,2S8,12.59,8,11.48z M10.5,28.3c-1.1,0-2-0.9-2-2s0.9-2,2-2s2,0.9,2,2S11.6,28.3,10.5,28.3z
		 M10.5,37.98c-1.1,0-2-0.9-2-2s0.9-2,2-2s2,0.9,2,2S11.6,37.98,10.5,37.98z M53.5,33.98c1.1,0,2,0.9,2,2s-0.9,2-2,2s-2-0.9-2-2
		S52.4,33.98,53.5,33.98z M32.76,40.2c0,0.17,0.02,0.33,0.05,0.49c0.01,0.05,0.03,0.1,0.04,0.15c0.03,0.11,0.06,0.21,0.1,0.32
		c0.02,0.06,0.05,0.11,0.07,0.17c0.04,0.09,0.09,0.18,0.14,0.27c0.03,0.05,0.07,0.11,0.1,0.16c0.02,0.03,0.04,0.07,0.06,0.1
		c-0.44,0.08-0.88,0.13-1.33,0.13c-3.86,0-7-3.14-7-7s3.14-7,7-7s7,3.14,7,7c0,1.37-0.39,2.68-1.14,3.82l-0.51-0.51
		c-1.02-1.02-2.79-1.02-3.8,0C33.04,38.8,32.76,39.48,32.76,40.2z M43,43.95l-4.44-4.44c0.93-1.34,1.44-2.89,1.44-4.52
		c0-4.41-3.59-8-8-8s-8,3.59-8,8s3.59,8,8,8c0.72,0,1.43-0.11,2.12-0.31l2.11,2.11v2.25H21V24.89h22V43.95z M23.29,19.98h17.42
		c1.26,0,2.29,1.03,2.29,2.29v1.61H21v-1.61C21,21.01,22.03,19.98,23.29,19.98z M23.29,51.98c-1.26,0-2.29-1.03-2.29-2.29v-1.66
		h15.23v1.79l2.16,2.16H23.29z M44.01,46.37v-6.84l3.17,3.17v11.83h-4.84l-1.53-1.53l-3.57-3.57v-5.04l-2.02-2.02l-0.96-0.96
		c-0.32-0.32-0.5-0.74-0.5-1.19s0.18-0.88,0.5-1.19c0.64-0.64,1.75-0.64,2.39,0l1.33,1.33L44.01,46.37L44.01,46.37L44.01,46.37z"/>
		</g>
	</symbol>

	<symbol id="scanId" viewBox="0 0 64 64">
		<g>
			<path class="svg" d="M21.11,34.06V22.63H9.67v11.43H21.11z M10.67,23.63h9.43v9.43h-9.43V23.63z"/>
			<rect class="svg" x="24.48" y="24.05" width="17.44" height="1"/>
			<rect class="svg" x="24.48" y="27.85" width="8.72" height="1"/>
			<path class="svg" d="M51.89,39.28c0-5.55-4.51-10.06-10.06-10.06s-10.06,4.51-10.06,10.06s4.51,10.06,10.06,10.06S51.89,44.83,51.89,39.28z
		 M41.83,48.34c-5,0-9.06-4.06-9.06-9.06s4.06-9.06,9.06-9.06s9.06,4.06,9.06,9.06S46.82,48.34,41.83,48.34z"/>
			<path class="svg" d="M37.1,34.06c-1.48,1.34-2.33,3.24-2.33,5.22s0.85,3.88,2.33,5.22l0.67-0.74c-1.27-1.15-2-2.79-2-4.48s0.73-3.33,2-4.48
		L37.1,34.06z"/>
			<path class="svg" d="M6.87,16.7h15.99v3.5h7.58h0.5v-7.09c0-2.23-1.81-4.04-4.04-4.04c-2.23,0-4.04,1.81-4.04,4.04v2.59H5.87v26.37h23.62v-1
		H6.87V16.7z M23.86,13.11c0-1.68,1.36-3.04,3.04-3.04s3.04,1.36,3.04,3.04v6.09h-6.08v-3.5V13.11z"/>
			<polygon class="svg" points="46.86,28.03 47.86,28.03 47.86,15.7 33.44,15.7 33.44,16.7 46.86,16.7 	"/>
			<path class="svg" d="M57.14,50.01l-5.63-4.77L50.87,46l5.63,4.77c0.39,0.33,0.61,0.79,0.63,1.29c0.02,0.51-0.16,0.98-0.52,1.34
		c-0.36,0.36-0.84,0.55-1.34,0.52c-0.51-0.02-0.96-0.25-1.29-0.63l-4.78-5.63l-0.76,0.65l4.78,5.63c0.5,0.59,1.24,0.95,2.01,0.98
		c0.04,0,0.08,0,0.11,0c0.74,0,1.45-0.29,1.97-0.82c0.55-0.55,0.85-1.31,0.82-2.09C58.1,51.25,57.74,50.51,57.14,50.01z"/>
		</g>
	</symbol>

	<symbol id="selfie" viewBox="0 0 64 64">
		<g>
			<path class="svg" d="M41.35,30.19h7.49v12.43c0,4.2-1.57,8.24-4.42,11.37l0.74,0.67c3.02-3.32,4.68-7.59,4.68-12.05V30.19h2.41v10.74h1V29.19
		h-11.9V30.19z"/>
			<path class="svg" d="M22.79,30.19v-1h-11.9v11.74h1V30.19h2.13v12.43c0,4.45,1.66,8.73,4.68,12.05l0.74-0.67c-2.85-3.13-4.42-7.17-4.42-11.37
		V30.19H22.79z"/>
			<polygon class="svg" points="11.89,45.29 10.89,45.29 10.89,57.61 22.79,57.61 22.79,56.61 11.89,56.61 	"/>
			<polygon class="svg" points="52.25,56.61 41.35,56.61 41.35,57.61 53.25,57.61 53.25,45.29 52.25,45.29 	"/>
			<path class="svg" d="M24.5,57.8l-0.44,0.9c2.49,1.22,5.14,1.84,7.87,1.84c2.73,0,5.38-0.62,7.87-1.84l-0.44-0.9C34.66,60.1,29.2,60.1,24.5,57.8
		z"/>
			<rect class="svg" x="40.43" y="36.43" width="1" height="4.5"/>
			<rect class="svg" x="22.43" y="36.43" width="1" height="4.5"/>
			<path class="svg" d="M37.51,52.65l-0.54-0.84c-2.89,1.85-6.73,1.85-9.62,0l-0.54,0.84c1.6,1.03,3.46,1.57,5.35,1.57S35.91,53.67,37.51,52.65z"
			/>
			<path class="svg" d="M52.37,4.54c-1.32,1.6-5.25,5.74-7.59,5.74H22.21c-4.67,0-8.48,3.8-8.48,8.48c0,0.47,0.05,0.92,0.12,1.37
		c-0.98,0.27-3.11,1.07-3.11,3v4.56h1v-4.56c0-1.22,1.54-1.81,2.32-2.03c0.44,1.51,1.29,2.85,2.42,3.89
		c-1.48,0.57-2.15,2.11-2.18,2.2l0.93,0.38c0.03-0.07,0.73-1.69,2.25-1.78c1.35,0.91,2.98,1.45,4.73,1.45h22.57
		c1.42,0,2.77-0.36,3.95-0.98v1.43h1v-2.06c2.14-1.54,3.53-4.04,3.53-6.87V3.47L52.37,4.54z M52.25,18.76
		c0,4.12-3.35,7.48-7.48,7.48H22.21c-4.12,0-7.48-3.35-7.48-7.48s3.35-7.48,7.48-7.48h22.57c2.49,0,5.89-3.36,7.48-5.1V18.76z"/>
		</g>
	</symbol>

</svg>
