<?xml version="1.0" encoding="utf-8"?>
<!-- Generator: Adobe Illustrator 24.2.1, SVG Export Plug-In . SVG Version: 6.00 Build 0)  -->
<svg version="1.1" id="Layer_1" xmlns="http://www.w3.org/2000/svg" xmlns:xlink="http://www.w3.org/1999/xlink" x="0px" y="0px"
	 viewBox="0 0 64 64" style="enable-background:new 0 0 64 64;" xml:space="preserve">
<style type="text/css">
	.svg {fill:#fff}
</style>
<g>
	<path class="svg" d="M21.11,34.06V22.63H9.67v11.43H21.11z M10.67,23.63h9.43v9.43h-9.43V23.63z"/>
	<rect class="svg" x="24.48" y="24.05" width="17.44" height="1"/>
	<rect class="svg" x="24.48" y="27.85" width="8.72" height="1"/>
	<path class="svg" d="M51.89,39.28c0-5.55-4.51-10.06-10.06-10.06s-10.06,4.51-10.06,10.06s4.51,10.06,10.06,10.06S51.89,44.83,51.89,39.28z
		 M41.83,48.34c-5,0-9.06-4.06-9.06-9.06s4.06-9.06,9.06-9.06s9.06,4.06,9.06,9.06S46.82,48.34,41.83,48.34z"/>
	<path class="svg" d="M37.1,34.06c-1.48,1.34-2.33,3.24-2.33,5.22s0.85,3.88,2.33,5.22l0.67-0.74c-1.27-1.15-2-2.79-2-4.48s0.73-3.33,2-4.48
		L37.1,34.06z"/>
	<path class="svg" d="M6.87,16.7h15.99v3.5h7.58h0.5v-7.09c0-2.23-1.81-4.04-4.04-4.04c-2.23,0-4.04,1.81-4.04,4.04v2.59H5.87v26.37h23.62v-1
		H6.87V16.7z M23.86,13.11c0-1.68,1.36-3.04,3.04-3.04s3.04,1.36,3.04,3.04v6.09h-6.08v-3.5V13.11z"/>
	<polygon class="svg" points="46.86,28.03 47.86,28.03 47.86,15.7 33.44,15.7 33.44,16.7 46.86,16.7 	"/>
	<path class="svg" d="M57.14,50.01l-5.63-4.77L50.87,46l5.63,4.77c0.39,0.33,0.61,0.79,0.63,1.29c0.02,0.51-0.16,0.98-0.52,1.34
		c-0.36,0.36-0.84,0.55-1.34,0.52c-0.51-0.02-0.96-0.25-1.29-0.63l-4.78-5.63l-0.76,0.65l4.78,5.63c0.5,0.59,1.24,0.95,2.01,0.98
		c0.04,0,0.08,0,0.11,0c0.74,0,1.45-0.29,1.97-0.82c0.55-0.55,0.85-1.31,0.82-2.09C58.1,51.25,57.74,50.51,57.14,50.01z"/>
</g>
</svg>
