<?xml version="1.0" encoding="utf-8"?>
<!-- Generator: Adobe Illustrator 24.2.1, SVG Export Plug-In . SVG Version: 6.00 Build 0)  -->
<svg version="1.1" id="Layer_1" xmlns="http://www.w3.org/2000/svg" xmlns:xlink="http://www.w3.org/1999/xlink" x="0px" y="0px"
	 viewBox="0 0 64 64" style="enable-background:new 0 0 64 64;" xml:space="preserve">
<style type="text/css">
	.svg {fill:#fff}
</style>
<g>
	<path class="svg" d="M41.35,30.19h7.49v12.43c0,4.2-1.57,8.24-4.42,11.37l0.74,0.67c3.02-3.32,4.68-7.59,4.68-12.05V30.19h2.41v10.74h1V29.19
		h-11.9V30.19z"/>
	<path class="svg" d="M22.79,30.19v-1h-11.9v11.74h1V30.19h2.13v12.43c0,4.45,1.66,8.73,4.68,12.05l0.74-0.67c-2.85-3.13-4.42-7.17-4.42-11.37
		V30.19H22.79z"/>
	<polygon class="svg" points="11.89,45.29 10.89,45.29 10.89,57.61 22.79,57.61 22.79,56.61 11.89,56.61 	"/>
	<polygon class="svg" points="52.25,56.61 41.35,56.61 41.35,57.61 53.25,57.61 53.25,45.29 52.25,45.29 	"/>
	<path class="svg" d="M24.5,57.8l-0.44,0.9c2.49,1.22,5.14,1.84,7.87,1.84c2.73,0,5.38-0.62,7.87-1.84l-0.44-0.9C34.66,60.1,29.2,60.1,24.5,57.8
		z"/>
	<rect class="svg" x="40.43" y="36.43" width="1" height="4.5"/>
	<rect class="svg" x="22.43" y="36.43" width="1" height="4.5"/>
	<path class="svg" d="M37.51,52.65l-0.54-0.84c-2.89,1.85-6.73,1.85-9.62,0l-0.54,0.84c1.6,1.03,3.46,1.57,5.35,1.57S35.91,53.67,37.51,52.65z"
		/>
	<path class="svg" d="M52.37,4.54c-1.32,1.6-5.25,5.74-7.59,5.74H22.21c-4.67,0-8.48,3.8-8.48,8.48c0,0.47,0.05,0.92,0.12,1.37
		c-0.98,0.27-3.11,1.07-3.11,3v4.56h1v-4.56c0-1.22,1.54-1.81,2.32-2.03c0.44,1.51,1.29,2.85,2.42,3.89
		c-1.48,0.57-2.15,2.11-2.18,2.2l0.93,0.38c0.03-0.07,0.73-1.69,2.25-1.78c1.35,0.91,2.98,1.45,4.73,1.45h22.57
		c1.42,0,2.77-0.36,3.95-0.98v1.43h1v-2.06c2.14-1.54,3.53-4.04,3.53-6.87V3.47L52.37,4.54z M52.25,18.76
		c0,4.12-3.35,7.48-7.48,7.48H22.21c-4.12,0-7.48-3.35-7.48-7.48s3.35-7.48,7.48-7.48h22.57c2.49,0,5.89-3.36,7.48-5.1V18.76z"/>
</g>
</svg>
