<svg xmlns="http://www.w3.org/2000/svg" viewBox="0 0 494.43 219.34">
<path style="fill: #9bcd20" d="M91.91,81.89a21.21,21.21,0,0,1,6,15.15V108q0,11.1-6.27,18.2a20.67,20.67,0,0,1-16.27,7.1,19.31,19.31,0,0,1-15.84-7.43q-6-7.42-6-19.82,0-14.43,6.23-22.44t17.26-8A19.65,19.65,0,0,1,91.91,81.89Zm127.51,27.47A108.18,108.18,0,1,1,111.24,1.19,108.18,108.18,0,0,1,219.42,109.36Zm-109.64-42H97.89v10.3H97.6q-7.25-12-22.25-12-15.81,0-24.9,11.17t-9.1,30.08q0,16.68,8.45,26.57t22.29,9.9q17,0,25.51-14.21h.29v8.12q0,29.15-27.4,29.14-11.38,0-23.92-7v11.89q10.29,5.22,24.07,5.22,39.14,0,39.14-40.89Zm82.27,36.83q0-18.12-9.31-28.34T156.82,65.57q-17.4,0-27.62,10.52T119,105.3q0,17.17,9.82,27.58t26.28,10.41q16.89,0,26.93-10.7T192.05,104.14ZM156,75.58q-11.46,0-18.12,7.79t-6.67,21.5q0,13.18,6.74,20.8t18,7.61q11.52,0,17.72-7.46t6.2-21.24q0-13.92-6.2-21.46T156,75.58Zm83.58,65.17a7.79,7.79,0,0,0,2.4-5.73,7.92,7.92,0,0,0-2.4-5.76,7.82,7.82,0,0,0-5.8-2.43,7.64,7.64,0,0,0-5.69,2.43,8,8,0,0,0-2.35,5.76,7.86,7.86,0,0,0,2.35,5.73,7.68,7.68,0,0,0,5.69,2.39A7.86,7.86,0,0,0,239.53,140.75Zm73.9-13.92a29.79,29.79,0,0,1-18.27,6.45q-11.52,0-18.38-7.54t-6.85-20.58q0-13.27,7.29-21.43a23.93,23.93,0,0,1,18.67-8.15,30.19,30.19,0,0,1,17.68,5.8V69.2a39,39,0,0,0-17.25-3.63q-17.55,0-28.05,11.13t-10.52,29.47q0,16.45,9.75,26.79t25.63,10.33q11.75,0,20.3-5.15Zm68.89-33.56q0-27.69-26.17-27.7a46,46,0,0,0-25.23,7V84.71a36.53,36.53,0,0,1,24.21-9.13q15.3,0,15.3,18.92l-22.26,3.12q-24.5,3.41-24.5,24.21,0,9.72,6.27,15.59t17.36,5.87q15.09,0,22.84-13.34h.29v11.6h11.89Zm-11.89,18.12q0,9.49-5.76,15.7a19.11,19.11,0,0,1-14.61,6.19q-6.45,0-10.33-3.44a11.33,11.33,0,0,1-3.88-8.88q0-7.47,4.2-10.4t12.47-4.1L370.43,104ZM497.5,95.8q0-30.22-24.5-30.23-16.38,0-24.65,15.37a21.27,21.27,0,0,0-7.75-11.12,21.48,21.48,0,0,0-13.27-4.25q-15.15,0-23.05,13.49H404V67.31H392.1v74.24H404V99.21q0-10.5,5.07-17.07A15.68,15.68,0,0,1,422,75.58q16.89,0,16.89,21.89v44.08h11.89V99.21a26.63,26.63,0,0,1,5.32-16.67q5.34-7,12.94-7,9,0,12.8,5.51t3.81,17.83v42.63H497.5Z" transform="translate(-3.07 -1.19)"/>
</svg>
